<svg version="1.1" viewBox="0 0 24 22" xmlns="http://www.w3.org/2000/svg" xmlns:xlink="http://www.w3.org/1999/xlink"><g transform="translate(-342.5 -521.36)"><g transform="matrix(1.3594 0 0 1.3564 319.21 481.99)"><rect transform="matrix(.47305 0 0 .48074 -6.3607 -29.396)" x="50.44" y="125.35" width="29.56" height="29.154" rx="4.4137" ry="4.4234" style="color:#000000;fill:#2777ff;stroke-linejoin:round;stroke-width:1.5443;stroke:#00348d"/><path d="m17.871 33.844v-0.77311c0-1.0313 0.80717-1.8361 1.812-1.8361h9.6125c1.0048 0 1.7878 0.80488 1.7878 1.8361v0.77311c0-1.0313-0.78301-1.8361-1.7878-1.8361h-9.6125c-1.0048 0-1.812 0.80488-1.812 1.8361z" style="block-progression:tb;color:#000000;fill:#fff;opacity:.1;text-indent:0;text-transform:none"/><path d="m17.871 41.896v0.77311c0 1.0313 0.64462 1.8361 1.6494 1.8361h10.068c1.0048 0 1.4952-0.80488 1.4952-1.8361v-0.77311c0 1.0313-0.78301 1.8361-1.7878 1.8361h-9.6125c-1.0048 0-1.812-0.80488-1.812-1.8361z" style="block-progression:tb;color:#000000;opacity:.3;text-indent:0;text-transform:none"/></g><rect x="342.3" y="521.58" width="21.944" height="21.944" style="color:#000000;fill:none"/><path d="m359.98 524.83-7.8861 7.7146-2.5716-2.5716-2.9144-0.0427v2.3573l4.0288 3.9859c0.80342 0.80309 2.111 0.80309 2.9144 0l8.1861-8.2289v-0.38573c0-1.2413 0.19944-1.768-0.82915-2.2984z" style="color:#000000;opacity:.3"/><path d="m361.65 524.53-9.5602 9.3674-2.5634-2.5634-2.9285-0.0214 0.0153 2.3264 4.022 4.0221c0.80341 0.80309 2.1056 0.80309 2.9091 0l10.95-11.058 3e-3 -2.1502z" style="block-progression:tb;color:#000000;fill:#eeeeec;text-indent:0;text-transform:none"/></g></svg>
