<svg version="1.1" viewBox="0 0 776 417" xmlns="http://www.w3.org/2000/svg"><g transform="matrix(.93157 0 0 .93157 421.8 44.372)"><g transform="matrix(4.3259,0,0,4.3259,-192.5,-93.007)"><path d="m71.766 36.352s-10.212-0.6795-27.602 4.7619c-17.722 5.5452-27.773 13.405-27.773 13.405s26.414-14.748 56.228-15.586zm38.09 16.035 1.3276-0.08664s-7.6062-9.2286-22.165-13.724c8.1839 3.3267 15.307 7.7345 20.837 13.81zm2.1727 3.8344c0.20411-0.3539 0.86302 1.1243 1.3634 1.7453 0.0212 0.124 0.0564 0.19967-0.23373 0.13998-0.0244-0.12747-0.0665-0.16444-0.0665-0.16444s-0.70029-0.41667-0.91499-0.71224c-0.21487-0.29556-0.253-0.81255-0.14825-1.0086zm17.867 43.93s1.6147-18.538-27.511-22.812c-3.6915-0.54163-8.3599-0.9585-13.082-0.97044-23.344 0.30865-24.195-26.924-6.6044-28.299 7.2901-0.60152 15.995 3.3311 24.505 7.2941-0.0316 1.0569 0.0121 1.9961 0.70646 2.864 0.69414 0.86762 3.3607 1.8142 4.2128 2.3031 0.85203 0.48907 3.5816 2.2245 5.2543 4.4017 0.36275-0.67854 3.3921-2.6504 3.3921-2.6504s-0.72571 0.01579-2.414-0.61519c-1.6885-0.63098-3.6921-2.5401-3.7395-2.6504-0.0473-0.11052-0.0788-0.28401 0.31578-0.36295 0.2996-0.25224-0.37893-1.0727-0.67874-1.3723-0.2996-0.2998-2.3036-3.7073-2.3508-3.7863-0.0473-0.07894-0.0632-0.1577-0.20507-0.25243-0.4419-0.1421-2.3826 0.20506-2.3826 0.20506s-2.9847-1.4659-4.0135-4.6264c0.015 0.55358-0.5118 1.158 0 2.4298-1.5562-0.65832-2.8929-1.7811-3.9472-4.5557-0.62751 1.5781 0 2.5815 0 2.5815s-3.6646-1.024-4.2509-4.4036c-0.6435 1.5171 0 2.4296 0 2.4296s-5.9742-3.1172-15.901-3.1624c-6.646-0.60961-8.0296-12.301-7.4139-14.269 0 0-9.586-5.0521-28.456-7.2841-18.87-2.2322-34.346-0.33638-34.346-0.33638s33.421-1.6039 60.195 9.2356c0.91018 4.0709 3.6482 10.851 5.1229 14.11-4.2197 2.9175-8.9781 5.6609-9.7191 15.391-0.74074 9.7297 7.6245 18.288 17.998 18.552 9.8502 0.52469 16.656 0.59921 24.905 4.8759 7.8739 4.3537 14.33 17.62 14.969 29.551 0.69008-8.8524-2.632-27.889-18.134-33.669 21.667 3.7917 23.573 19.854 23.573 19.854zm-58.64-65.253-0.77963-2.5147s-12.864-2.2844-30.16-1.055-34.759 7.2839-34.759 7.2839 35.732-8.991 65.698-3.7143" style="opacity:.2"/></g><g transform="matrix(4.3259,0,0,4.3259,-767.34,-4.5814)"><path transform="matrix(.23117 0 0 .23117 364.2 -5.0129)" d="m-887.44 26.268c-39.543 0.04519-65.695 3.248-65.695 3.248s25.029-1.188 62.545 0.7793c24.345-0.1344 54.018 0.88863 86.033 4.6758 78.887 9.331 119.88 29.87 122.58 31.252 0.0792-1.6029 0.2551-2.8907 0.52149-3.7422 0 0-41.468-21.854-123.1-31.51-30.611-3.6211-59.157-4.7302-82.883-4.7031zm107.15 40.945c-14.15-0.0288-29.6 0.40695-45.967 1.5703-74.821 5.3182-150.36 31.51-150.36 31.51s17.512-4.3963 45.617-9.3633c28.406-7.3194 66.64-15.438 104.75-18.146 74.821-5.3182 130.47 4.5645 130.47 4.5645l2.0644 6.6582c0.43482 0.07509 0.87237 0.14228 1.3066 0.21875l2e-3 2e-3 -3.373-10.879s-33.965-6.0319-84.502-6.1348zm98.305 3.0781c-0.6871 14.483 6.7588 55.546 32.594 57.916 42.942 0.19553 68.787 13.68 68.787 13.68s-1.1572-1.6564-1.2285-4.5938c-5.5861-2.6046-30.045-12.915-67.559-13.086-23.747-2.1782-31.955-37.044-32.594-53.916zm-12.795 20.107c-13.085-0.05531-53.708 1.5895-114.83 20.715-76.663 23.988-120.14 57.988-120.14 57.988s9.3204-5.1971 25.598-12.699c20.378-11.926 52.414-28.106 94.545-41.289 75.227-23.539 119.4-20.6 119.4-20.6l2.3848 7.2129c0.43597-0.0136 0.87033-0.0346 1.3066-0.0469l-3.6914-11.166s-1.5527-0.10247-4.5723-0.11523zm79.205 9.7383c21.043 8.554 40.448 18.778 57.766 31.17 17.688 11.594 29.334 22.786 34.697 28.42l3.4219-0.22265s-32.905-39.921-95.885-59.367zm34.971 27.24c-1.3658 3.22-1.3889 5.8059-1.0606 7.6094 0.17815-1.0928 0.50376-2.2967 1.0606-3.6094 2.5363 14.62 18.389 19.051 18.389 19.051s-0.9997-1.614-1.1758-4.4082c-3.6113-1.303-15.078-6.3393-17.213-18.643zm-91.328 4.0606c-17.907 12.294-37.562 24.587-40.689 65.648-0.1836 2.4116-0.23137 4.8052-0.16211 7.1777 0.0312-1.0561 0.0812-2.1146 0.16211-3.1777 3.2055-42.091 23.789-53.959 42.043-66.58-0.41142-0.90922-0.90022-2.0397-1.3535-3.0684zm109.72 3.8223c-1.3045 3.2806-1.3501 5.9777-1.0508 7.9043 0.1685-1.186 0.48746-2.4876 1.0508-3.9043 4.5608 12.003 10.342 16.859 17.074 19.707-0.69939-1.738-0.94858-3.1858-0.9668-4.4316-6.3186-2.9064-11.767-7.8529-16.107-19.275zm17.029 9.7617c-0.19314 1.836-1.3807 3.9146-0.72461 7.3613 0.29206-1.5569 0.80083-2.7726 0.76953-3.9277 4.4505 13.672 17.363 20.014 17.363 20.014s8.395-1.5014 10.307-0.88672c0.61372 0.40979 0.68211 0.75031 0.88672 1.0918 0.20418 0.34174 8.8739 15.082 10.17 16.379 0.51043 0.51008 1.2696 1.3701 1.9297 2.291 0.22703-0.13823 0.54551-0.26142 1.0059-0.35352 1.296-1.0912-1.6386-4.6415-2.9356-5.9375-1.296-1.2969-9.9657-16.037-10.17-16.379-0.20461-0.34149-0.273-0.68201-0.88672-1.0918-0.45106-0.14504-1.2802-0.16614-2.2578-0.12305 6.7e-4 8.2e-4 0.0391 0.0449 0.0391 0.0449l-2.5898 0.16992c-2.723 0.30518-5.498 0.79492-5.498 0.79492s-12.37-6.0813-17.066-19.164c-0.11346-0.0949-0.22813-0.18853-0.3418-0.28321zm29.455 35.234c-0.11558 0.0135-0.22168 0.067-0.30469 0.21094-0.45314 0.84809-0.28888 3.0847 0.64063 4.3633 0.92876 1.2786 3.959 3.0801 3.959 3.0801s0.18156 0.16147 0.28711 0.71289c1.2551 0.25821 1.1034-0.0691 1.0117-0.60547-1.1692-1.451-2.5304-3.9568-3.6816-5.7383-0.63395-0.48435-1.2425-0.99254-1.5742-1.4492-0.12715-0.1749-0.23898-0.36947-0.33789-0.57422zm12.566 9.9961c-7e-3 0.29893-0.0972 0.55534-0.31445 0.73828-1.7069 0.34149-1.5698 1.0922-1.3652 1.5703 0.20504 0.47714 8.8715 8.7353 16.176 11.465 2.3525 0.87924 4.2293 1.4454 5.752 1.8398 2.5969-1.8109 4.6914-3.1797 4.6914-3.1797s-3.14 0.0694-10.443-2.6602c-5.4276-2.0282-11.594-7.1006-14.496-9.7734zm-192.38 8.7539c-1.032 33.231 25.018 69.36 81.197 68.617 20.427 0.0516 40.621 1.8542 56.59 4.1973 108.4 15.907 118.36 77.441 119.03 94.332 0.25023-3.7133 3.9101-80.292-119.03-98.332-15.969-2.343-36.163-4.1456-56.59-4.1973-53.931 0.71307-80.101-32.554-81.197-64.617zm154.82 85.613c60.708 22.635 78.232 92.263 78.793 133.66 0.49831-37.096-13.243-101.33-63.004-130.2-4.9763-1.3216-10.227-2.4856-15.789-3.459z" style="opacity:.2;stroke-width:4.3259"/></g></g></svg>
